<svg width="400" height="100" viewBox="0 0 400 100" style="display: block; max-width: 100%; height: auto; border-radius: 0.5rem; overflow: hidden; box-shadow: 0 10px 15px rgba(0, 0, 0, 0.1); background-color: #f0f2f5;">
    <rect x="10" y="20" width="380" height="60" rx="30" ry="30" fill="#E0E0E0"/>

    <polygon id="playButton" points="30,40 45,50 30,60" fill="#333" opacity="1"/>

    <g id="pauseButton" opacity="0">
        <rect x="30" y="40" width="5" height="20" fill="#333"/>
        <rect x="40" y="40" width="5" height="20" fill="#333"/>
    </g>

    <text x="60" y="52" font-family="sans-serif" font-size="14" fill="#333" alignment-baseline="middle">0:00 / 0:04</text>

    <rect x="140" y="47" width="150" height="6" rx="3" ry="3" fill="#B0B0B0"/>
    <rect id="progressBar" x="140" y="47" width="0" height="6" rx="3" ry="3" fill="#4CAF50"/>

    <g id="volumeIcon">
        <path d="M305,40 L305,60 L315,60 L325,50 L315,40 Z" fill="#333"/>
        <path d="M330,45 Q340,40 350,45 M330,55 Q340,50 350,55" stroke="#333" stroke-width="2" fill="none"/>
    </g>

    <g id="menuDots">
        <circle cx="365" cy="40" r="2" fill="#333"/>
        <circle cx="365" cy="50" r="2" fill="#333"/>
        <circle cx="365" cy="60" r="2" fill="#333"/>
    </g>

    <polygon id="cursor" points="0,0 10,0 0,10" fill="white" stroke="#333" stroke-width="1" transform="translate(100,100)">
        <animateMotion
            path="M 100 100 L 37.5 50"
            dur="1s"
            fill="freeze"
            id="cursorMove"
            begin="1s; progressBarFillAnim.end" />
    </polygon>

    <animate attributeName="opacity" href="#playButton" from="1" to="0" begin="cursorMove.end" dur="0.2s" fill="freeze" id="playToPauseAnim"/>
    <animate attributeName="opacity" href="#pauseButton" from="0" to="1" begin="cursorMove.end" dur="0.2s" fill="freeze"/>

    <animate attributeName="width" href="#progressBar" from="0" to="150" begin="playToPauseAnim.end" dur="4s" fill="freeze" id="progressBarFillAnim"/>

    <animate attributeName="opacity" href="#cursor" from="1" to="0" begin="playToPauseAnim.end" dur="0.1s" fill="freeze"/>

    <set attributeName="opacity" href="#playButton" to="1" begin="progressBarFillAnim.end"/>
    <set attributeName="opacity" href="#pauseButton" to="0" begin="progressBarFillAnim.end"/>
    <set attributeName="width" href="#progressBar" to="0" begin="progressBarFillAnim.end"/>
    <set attributeName="opacity" href="#cursor" to="1" begin="progressBarFillAnim.end"/>
</svg>
