{"asset":{"version":"2.0","generator":"Blockbench 4.9.3 glTF exporter"},"scenes":[{"nodes":[21],"name":"blockbench_export"}],"scene":0,"nodes":[{"name":"plane","mesh":0},{"name":"building","mesh":1},{"name":"building_up","mesh":2},{"name":"building_corner","mesh":3},{"name":"pyramid","mesh":4},{"name":"cube","mesh":5},{"name":"cube","mesh":6},{"name":"cube","mesh":7},{"name":"cube","mesh":8},{"name":"cube","mesh":9},{"name":"cube","mesh":10},{"name":"cube","mesh":11},{"name":"cube","mesh":12},{"name":"cube","mesh":13},{"name":"cube","mesh":14},{"name":"cube","mesh":15},{"name":"cube","mesh":16},{"name":"cube","mesh":17},{"name":"cube","mesh":18},{"name":"cube","mesh":19},{"name":"fence","children":[5,6,7,8,9,10,11,12,13,14,15,16,17,18,19]},{"children":[0,1,2,3,4,20]}],"bufferViews":[{"buffer":0,"byteOffset":0,"byteLength":48,"target":34962,"byteStride":12},{"buffer":0,"byteOffset":48,"byteLength":48,"target":34962,"byteStride":12},{"buffer":0,"byteOffset":96,"byteLength":32,"target":34962,"byteStride":8},{"buffer":0,"byteOffset":128,"byteLength":12,"target":34963},{"buffer":0,"byteOffset":140,"byteLength":288,"target":34962,"byteStride":12},{"buffer":0,"byteOffset":428,"byteLength":288,"target":34962,"byteStride":12},{"buffer":0,"byteOffset":716,"byteLength":192,"target":34962,"byteStride":8},{"buffer":0,"byteOffset":908,"byteLength":72,"target":34963},{"buffer":0,"byteOffset":980,"byteLength":288,"target":34962,"byteStride":12},{"buffer":0,"byteOffset":1268,"byteLength":288,"target":34962,"byteStride":12},{"buffer":0,"byteOffset":1556,"byteLength":192,"target":34962,"byteStride":8},{"buffer":0,"byteOffset":1748,"byteLength":36,"target":34963},{"buffer":0,"byteOffset":1784,"byteLength":12,"target":34963},{"buffer":0,"byteOffset":1796,"byteLength":24,"target":34963},{"buffer":0,"byteOffset":1820,"byteLength":288,"target":34962,"byteStride":12},{"buffer":0,"byteOffset":2108,"byteLength":288,"target":34962,"byteStride":12},{"buffer":0,"byteOffset":2396,"byteLength":192,"target":34962,"byteStride":8},{"buffer":0,"byteOffset":2588,"byteLength":12,"target":34963},{"buffer":0,"byteOffset":2600,"byteLength":24,"target":34963},{"buffer":0,"byteOffset":2624,"byteLength":12,"target":34963},{"buffer":0,"byteOffset":2636,"byteLength":24,"target":34963},{"buffer":0,"byteOffset":2660,"byteLength":192,"target":34962,"byteStride":12},{"buffer":0,"byteOffset":2852,"byteLength":192,"target":34962,"byteStride":12},{"buffer":0,"byteOffset":3044,"byteLength":128,"target":34962,"byteStride":8},{"buffer":0,"byteOffset":3172,"byteLength":36,"target":34963},{"buffer":0,"byteOffset":3208,"byteLength":288,"target":34962,"byteStride":12},{"buffer":0,"byteOffset":3496,"byteLength":288,"target":34962,"byteStride":12},{"buffer":0,"byteOffset":3784,"byteLength":192,"target":34962,"byteStride":8},{"buffer":0,"byteOffset":3976,"byteLength":72,"target":34963},{"buffer":0,"byteOffset":4048,"byteLength":288,"target":34962,"byteStride":12},{"buffer":0,"byteOffset":4336,"byteLength":288,"target":34962,"byteStride":12},{"buffer":0,"byteOffset":4624,"byteLength":192,"target":34962,"byteStride":8},{"buffer":0,"byteOffset":4816,"byteLength":72,"target":34963},{"buffer":0,"byteOffset":4888,"byteLength":288,"target":34962,"byteStride":12},{"buffer":0,"byteOffset":5176,"byteLength":288,"target":34962,"byteStride":12},{"buffer":0,"byteOffset":5464,"byteLength":192,"target":34962,"byteStride":8},{"buffer":0,"byteOffset":5656,"byteLength":72,"target":34963},{"buffer":0,"byteOffset":5728,"byteLength":288,"target":34962,"byteStride":12},{"buffer":0,"byteOffset":6016,"byteLength":288,"target":34962,"byteStride":12},{"buffer":0,"byteOffset":6304,"byteLength":192,"target":34962,"byteStride":8},{"buffer":0,"byteOffset":6496,"byteLength":72,"target":34963},{"buffer":0,"byteOffset":6568,"byteLength":288,"target":34962,"byteStride":12},{"buffer":0,"byteOffset":6856,"byteLength":288,"target":34962,"byteStride":12},{"buffer":0,"byteOffset":7144,"byteLength":192,"target":34962,"byteStride":8},{"buffer":0,"byteOffset":7336,"byteLength":72,"target":34963},{"buffer":0,"byteOffset":7408,"byteLength":288,"target":34962,"byteStride":12},{"buffer":0,"byteOffset":7696,"byteLength":288,"target":34962,"byteStride":12},{"buffer":0,"byteOffset":7984,"byteLength":192,"target":34962,"byteStride":8},{"buffer":0,"byteOffset":8176,"byteLength":72,"target":34963},{"buffer":0,"byteOffset":8248,"byteLength":288,"target":34962,"byteStride":12},{"buffer":0,"byteOffset":8536,"byteLength":288,"target":34962,"byteStride":12},{"buffer":0,"byteOffset":8824,"byteLength":192,"target":34962,"byteStride":8},{"buffer":0,"byteOffset":9016,"byteLength":72,"target":34963},{"buffer":0,"byteOffset":9088,"byteLength":288,"target":34962,"byteStride":12},{"buffer":0,"byteOffset":9376,"byteLength":288,"target":34962,"byteStride":12},{"buffer":0,"byteOffset":9664,"byteLength":192,"target":34962,"byteStride":8},{"buffer":0,"byteOffset":9856,"byteLength":72,"target":34963},{"buffer":0,"byteOffset":9928,"byteLength":288,"target":34962,"byteStride":12},{"buffer":0,"byteOffset":10216,"byteLength":288,"target":34962,"byteStride":12},{"buffer":0,"byteOffset":10504,"byteLength":192,"target":34962,"byteStride":8},{"buffer":0,"byteOffset":10696,"byteLength":72,"target":34963},{"buffer":0,"byteOffset":10768,"byteLength":288,"target":34962,"byteStride":12},{"buffer":0,"byteOffset":11056,"byteLength":288,"target":34962,"byteStride":12},{"buffer":0,"byteOffset":11344,"byteLength":192,"target":34962,"byteStride":8},{"buffer":0,"byteOffset":11536,"byteLength":72,"target":34963},{"buffer":0,"byteOffset":11608,"byteLength":288,"target":34962,"byteStride":12},{"buffer":0,"byteOffset":11896,"byteLength":288,"target":34962,"byteStride":12},{"buffer":0,"byteOffset":12184,"byteLength":192,"target":34962,"byteStride":8},{"buffer":0,"byteOffset":12376,"byteLength":72,"target":34963},{"buffer":0,"byteOffset":12448,"byteLength":288,"target":34962,"byteStride":12},{"buffer":0,"byteOffset":12736,"byteLength":288,"target":34962,"byteStride":12},{"buffer":0,"byteOffset":13024,"byteLength":192,"target":34962,"byteStride":8},{"buffer":0,"byteOffset":13216,"byteLength":72,"target":34963},{"buffer":0,"byteOffset":13288,"byteLength":288,"target":34962,"byteStride":12},{"buffer":0,"byteOffset":13576,"byteLength":288,"target":34962,"byteStride":12},{"buffer":0,"byteOffset":13864,"byteLength":192,"target":34962,"byteStride":8},{"buffer":0,"byteOffset":14056,"byteLength":72,"target":34963},{"buffer":0,"byteOffset":14128,"byteLength":288,"target":34962,"byteStride":12},{"buffer":0,"byteOffset":14416,"byteLength":288,"target":34962,"byteStride":12},{"buffer":0,"byteOffset":14704,"byteLength":192,"target":34962,"byteStride":8},{"buffer":0,"byteOffset":14896,"byteLength":72,"target":34963},{"buffer":0,"byteOffset":14968,"byteLength":288,"target":34962,"byteStride":12},{"buffer":0,"byteOffset":15256,"byteLength":288,"target":34962,"byteStride":12},{"buffer":0,"byteOffset":15544,"byteLength":192,"target":34962,"byteStride":8},{"buffer":0,"byteOffset":15736,"byteLength":72,"target":34963}],"buffers":[{"byteLength":15808,"uri":"data:application/octet-stream;base64,"}],"accessors":[{"bufferView":0,"componentType":5126,"count":4,"max":[0.5,0,0.5],"min":[-0.5,0,-0.5],"type":"VEC3"},{"bufferView":1,"componentType":5126,"count":4,"max":[0,1,0],"min":[0,1,0],"type":"VEC3"},{"bufferView":2,"componentType":5126,"count":4,"max":[1,1],"min":[0,0],"type":"VEC2"},{"bufferView":3,"componentType":5123,"count":6,"max":[3],"min":[0],"type":"SCALAR"},{"bufferView":4,"componentType":5126,"count":24,"max":[0.375,0.8125,0.375],"min":[-0.375,0,-0.375],"type":"VEC3"},{"bufferView":5,"componentType":5126,"count":24,"max":[1,1,1],"min":[-1,-1,-1],"type":"VEC3"},{"bufferView":6,"componentType":5126,"count":24,"max":[0.5625,0.40625],"min":[0,0],"type":"VEC2"},{"bufferView":7,"componentType":5123,"count":36,"max":[23],"min":[0],"type":"SCALAR"},{"bufferView":8,"componentType":5126,"count":24,"max":[0.375,1.3125,0.375],"min":[-0.0625,0.8125,-0.375],"type":"VEC3"},{"bufferView":9,"componentType":5126,"count":24,"max":[1,1,1],"min":[-1,-1,-1],"type":"VEC3"},{"bufferView":10,"componentType":5126,"count":24,"max":[0.1875,0.1875],"min":[0,0],"type":"VEC2"},{"bufferView":11,"componentType":5123,"count":18,"max":[11],"min":[0],"type":"SCALAR"},{"bufferView":12,"componentType":5123,"count":6,"max":[15],"min":[12],"type":"SCALAR"},{"bufferView":13,"componentType":5123,"count":12,"max":[23],"min":[16],"type":"SCALAR"},{"bufferView":14,"componentType":5126,"count":24,"max":[-0.0625,1.3125,0],"min":[-0.375,0.8125,-0.375],"type":"VEC3"},{"bufferView":15,"componentType":5126,"count":24,"max":[1,1,1],"min":[-1,-1,-1],"type":"VEC3"},{"bufferView":16,"componentType":5126,"count":24,"max":[0.09375,0.125],"min":[0,0],"type":"VEC2"},{"bufferView":17,"componentType":5123,"count":6,"max":[3],"min":[0],"type":"SCALAR"},{"bufferView":18,"componentType":5123,"count":12,"max":[11],"min":[4],"type":"SCALAR"},{"bufferView":19,"componentType":5123,"count":6,"max":[15],"min":[12],"type":"SCALAR"},{"bufferView":20,"componentType":5123,"count":12,"max":[23],"min":[16],"type":"SCALAR"},{"bufferView":21,"componentType":5126,"count":16,"max":[0.5,1.8125,0.5],"min":[-0.5,1.3125,-0.5],"type":"VEC3"},{"bufferView":22,"componentType":5126,"count":16,"max":[0.7071067690849304,0.7071067690849304,0.7071067690849304],"min":[-0.7071067690849304,-1,-0.7071067690849304],"type":"VEC3"},{"bufferView":23,"componentType":5126,"count":16,"max":[0.625,0.5205265283584595],"min":[0,0],"type":"VEC2"},{"bufferView":24,"componentType":5123,"count":18,"max":[15],"min":[0],"type":"SCALAR"},{"bufferView":25,"componentType":5126,"count":24,"max":[-0.3125,0.9375,0.0625],"min":[-0.375,0.875,0],"type":"VEC3"},{"bufferView":26,"componentType":5126,"count":24,"max":[1,1,1],"min":[-1,-1,-1],"type":"VEC3"},{"bufferView":27,"componentType":5126,"count":24,"max":[0.015625,0.015625],"min":[0,0],"type":"VEC2"},{"bufferView":28,"componentType":5123,"count":36,"max":[23],"min":[0],"type":"SCALAR"},{"bufferView":29,"componentType":5126,"count":24,"max":[-0.3125,0.9375,0.1875],"min":[-0.375,0.875,0.125],"type":"VEC3"},{"bufferView":30,"componentType":5126,"count":24,"max":[1,1,1],"min":[-1,-1,-1],"type":"VEC3"},{"bufferView":31,"componentType":5126,"count":24,"max":[0.015625,0.015625],"min":[0,0],"type":"VEC2"},{"bufferView":32,"componentType":5123,"count":36,"max":[23],"min":[0],"type":"SCALAR"},{"bufferView":33,"componentType":5126,"count":24,"max":[-0.3125,0.9375,0.3125],"min":[-0.375,0.875,0.25],"type":"VEC3"},{"bufferView":34,"componentType":5126,"count":24,"max":[1,1,1],"min":[-1,-1,-1],"type":"VEC3"},{"bufferView":35,"componentType":5126,"count":24,"max":[0.015625,0.015625],"min":[0,0],"type":"VEC2"},{"bufferView":36,"componentType":5123,"count":36,"max":[23],"min":[0],"type":"SCALAR"},{"bufferView":37,"componentType":5126,"count":24,"max":[-0.3125,0.9375,0.125],"min":[-0.375,0.875,0.0625],"type":"VEC3"},{"bufferView":38,"componentType":5126,"count":24,"max":[1,1,1],"min":[-1,-1,-1],"type":"VEC3"},{"bufferView":39,"componentType":5126,"count":24,"max":[0.015625,0.015625],"min":[0,0],"type":"VEC2"},{"bufferView":40,"componentType":5123,"count":36,"max":[23],"min":[0],"type":"SCALAR"},{"bufferView":41,"componentType":5126,"count":24,"max":[-0.3125,0.9375,0.375],"min":[-0.375,0.875,0.3125],"type":"VEC3"},{"bufferView":42,"componentType":5126,"count":24,"max":[1,1,1],"min":[-1,-1,-1],"type":"VEC3"},{"bufferView":43,"componentType":5126,"count":24,"max":[0.015625,0.015625],"min":[0,0],"type":"VEC2"},{"bufferView":44,"componentType":5123,"count":36,"max":[23],"min":[0],"type":"SCALAR"},{"bufferView":45,"componentType":5126,"count":24,"max":[-0.25,0.9375,0.375],"min":[-0.3125,0.875,0.3125],"type":"VEC3"},{"bufferView":46,"componentType":5126,"count":24,"max":[1,1,1],"min":[-1,-1,-1],"type":"VEC3"},{"bufferView":47,"componentType":5126,"count":24,"max":[0.015625,0.015625],"min":[0,0],"type":"VEC2"},{"bufferView":48,"componentType":5123,"count":36,"max":[23],"min":[0],"type":"SCALAR"},{"bufferView":49,"componentType":5126,"count":24,"max":[-0.1875,0.9375,0.375],"min":[-0.25,0.875,0.3125],"type":"VEC3"},{"bufferView":50,"componentType":5126,"count":24,"max":[1,1,1],"min":[-1,-1,-1],"type":"VEC3"},{"bufferView":51,"componentType":5126,"count":24,"max":[0.015625,0.015625],"min":[0,0],"type":"VEC2"},{"bufferView":52,"componentType":5123,"count":36,"max":[23],"min":[0],"type":"SCALAR"},{"bufferView":53,"componentType":5126,"count":24,"max":[-0.125,0.9375,0.375],"min":[-0.1875,0.875,0.3125],"type":"VEC3"},{"bufferView":54,"componentType":5126,"count":24,"max":[1,1,1],"min":[-1,-1,-1],"type":"VEC3"},{"bufferView":55,"componentType":5126,"count":24,"max":[0.015625,0.015625],"min":[0,0],"type":"VEC2"},{"bufferView":56,"componentType":5123,"count":36,"max":[23],"min":[0],"type":"SCALAR"},{"bufferView":57,"componentType":5126,"count":24,"max":[-0.0625,0.9375,0.375],"min":[-0.125,0.875,0.3125],"type":"VEC3"},{"bufferView":58,"componentType":5126,"count":24,"max":[1,1,1],"min":[-1,-1,-1],"type":"VEC3"},{"bufferView":59,"componentType":5126,"count":24,"max":[0.015625,0.015625],"min":[0,0],"type":"VEC2"},{"bufferView":60,"componentType":5123,"count":36,"max":[23],"min":[0],"type":"SCALAR"},{"bufferView":61,"componentType":5126,"count":24,"max":[-0.3125,0.875,0.375],"min":[-0.375,0.8125,0.3125],"type":"VEC3"},{"bufferView":62,"componentType":5126,"count":24,"max":[1,1,1],"min":[-1,-1,-1],"type":"VEC3"},{"bufferView":63,"componentType":5126,"count":24,"max":[0.015625,0.015625],"min":[0,0],"type":"VEC2"},{"bufferView":64,"componentType":5123,"count":36,"max":[23],"min":[0],"type":"SCALAR"},{"bufferView":65,"componentType":5126,"count":24,"max":[-0.1875,0.875,0.375],"min":[-0.25,0.8125,0.3125],"type":"VEC3"},{"bufferView":66,"componentType":5126,"count":24,"max":[1,1,1],"min":[-1,-1,-1],"type":"VEC3"},{"bufferView":67,"componentType":5126,"count":24,"max":[0.015625,0.015625],"min":[0,0],"type":"VEC2"},{"bufferView":68,"componentType":5123,"count":36,"max":[23],"min":[0],"type":"SCALAR"},{"bufferView":69,"componentType":5126,"count":24,"max":[-0.0625,0.875,0.375],"min":[-0.125,0.8125,0.3125],"type":"VEC3"},{"bufferView":70,"componentType":5126,"count":24,"max":[1,1,1],"min":[-1,-1,-1],"type":"VEC3"},{"bufferView":71,"componentType":5126,"count":24,"max":[0.015625,0.015625],"min":[0,0],"type":"VEC2"},{"bufferView":72,"componentType":5123,"count":36,"max":[23],"min":[0],"type":"SCALAR"},{"bufferView":73,"componentType":5126,"count":24,"max":[-0.3125,0.9375,0.25],"min":[-0.375,0.875,0.1875],"type":"VEC3"},{"bufferView":74,"componentType":5126,"count":24,"max":[1,1,1],"min":[-1,-1,-1],"type":"VEC3"},{"bufferView":75,"componentType":5126,"count":24,"max":[0.015625,0.015625],"min":[0,0],"type":"VEC2"},{"bufferView":76,"componentType":5123,"count":36,"max":[23],"min":[0],"type":"SCALAR"},{"bufferView":77,"componentType":5126,"count":24,"max":[-0.3125,0.875,0.25],"min":[-0.375,0.8125,0.1875],"type":"VEC3"},{"bufferView":78,"componentType":5126,"count":24,"max":[1,1,1],"min":[-1,-1,-1],"type":"VEC3"},{"bufferView":79,"componentType":5126,"count":24,"max":[0.015625,0.015625],"min":[0,0],"type":"VEC2"},{"bufferView":80,"componentType":5123,"count":36,"max":[23],"min":[0],"type":"SCALAR"},{"bufferView":81,"componentType":5126,"count":24,"max":[-0.3125,0.875,0.125],"min":[-0.375,0.8125,0.0625],"type":"VEC3"},{"bufferView":82,"componentType":5126,"count":24,"max":[1,1,1],"min":[-1,-1,-1],"type":"VEC3"},{"bufferView":83,"componentType":5126,"count":24,"max":[0.015625,0.015625],"min":[0,0],"type":"VEC2"},{"bufferView":84,"componentType":5123,"count":36,"max":[23],"min":[0],"type":"SCALAR"}],"materials":[{"pbrMetallicRoughness":{"metallicFactor":0,"roughnessFactor":1,"baseColorTexture":{"index":0}},"alphaMode":"MASK","alphaCutoff":0.05,"doubleSided":true},{"pbrMetallicRoughness":{"metallicFactor":0,"roughnessFactor":1,"baseColorTexture":{"index":1}},"alphaMode":"MASK","alphaCutoff":0.05,"doubleSided":true},{"pbrMetallicRoughness":{"metallicFactor":0,"roughnessFactor":1},"alphaMode":"MASK","alphaCutoff":0.05,"doubleSided":true},{"pbrMetallicRoughness":{"metallicFactor":0,"roughnessFactor":1},"alphaMode":"MASK","alphaCutoff":0.05,"doubleSided":true},{"pbrMetallicRoughness":{"metallicFactor":0,"roughnessFactor":1,"baseColorTexture":{"index":2}},"alphaMode":"MASK","alphaCutoff":0.05,"doubleSided":true},{"pbrMetallicRoughness":{"metallicFactor":0,"roughnessFactor":1},"alphaMode":"MASK","alphaCutoff":0.05,"doubleSided":true}],"textures":[{"sampler":0,"source":0},{"sampler":1,"source":1},{"sampler":2,"source":2}],"samplers":[{"magFilter":9728,"minFilter":9728,"wrapS":33071,"wrapT":33071},{"magFilter":9728,"minFilter":9728,"wrapS":33071,"wrapT":33071},{"magFilter":9728,"minFilter":9728,"wrapS":33071,"wrapT":33071}],"images":[{"mimeType":"image/png","uri":"data:image/png;base64,"},{"mimeType":"image/png","uri":"data:image/png;base64,"},{"mimeType":"image/png","uri":"data:image/png;base64,"}],"meshes":[{"primitives":[{"mode":4,"attributes":{"POSITION":0,"NORMAL":1,"TEXCOORD_0":2},"indices":3,"material":0}]},{"primitives":[{"mode":4,"attributes":{"POSITION":4,"NORMAL":5,"TEXCOORD_0":6},"indices":7,"material":1}]},{"primitives":[{"mode":4,"attributes":{"POSITION":8,"NORMAL":9,"TEXCOORD_0":10},"indices":11,"material":1},{"mode":4,"attributes":{"POSITION":8,"NORMAL":9,"TEXCOORD_0":10},"indices":12,"material":2},{"mode":4,"attributes":{"POSITION":8,"NORMAL":9,"TEXCOORD_0":10},"indices":13,"material":1}]},{"primitives":[{"mode":4,"attributes":{"POSITION":14,"NORMAL":15,"TEXCOORD_0":16},"indices":17,"material":3},{"mode":4,"attributes":{"POSITION":14,"NORMAL":15,"TEXCOORD_0":16},"indices":18,"material":1},{"mode":4,"attributes":{"POSITION":14,"NORMAL":15,"TEXCOORD_0":16},"indices":19,"material":3},{"mode":4,"attributes":{"POSITION":14,"NORMAL":15,"TEXCOORD_0":16},"indices":20,"material":1}]},{"primitives":[{"mode":4,"attributes":{"POSITION":21,"NORMAL":22,"TEXCOORD_0":23},"indices":24,"material":4}]},{"primitives":[{"mode":4,"attributes":{"POSITION":25,"NORMAL":26,"TEXCOORD_0":27},"indices":28,"material":5}]},{"primitives":[{"mode":4,"attributes":{"POSITION":29,"NORMAL":30,"TEXCOORD_0":31},"indices":32,"material":5}]},{"primitives":[{"mode":4,"attributes":{"POSITION":33,"NORMAL":34,"TEXCOORD_0":35},"indices":36,"material":5}]},{"primitives":[{"mode":4,"attributes":{"POSITION":37,"NORMAL":38,"TEXCOORD_0":39},"indices":40,"material":5}]},{"primitives":[{"mode":4,"attributes":{"POSITION":41,"NORMAL":42,"TEXCOORD_0":43},"indices":44,"material":5}]},{"primitives":[{"mode":4,"attributes":{"POSITION":45,"NORMAL":46,"TEXCOORD_0":47},"indices":48,"material":5}]},{"primitives":[{"mode":4,"attributes":{"POSITION":49,"NORMAL":50,"TEXCOORD_0":51},"indices":52,"material":5}]},{"primitives":[{"mode":4,"attributes":{"POSITION":53,"NORMAL":54,"TEXCOORD_0":55},"indices":56,"material":5}]},{"primitives":[{"mode":4,"attributes":{"POSITION":57,"NORMAL":58,"TEXCOORD_0":59},"indices":60,"material":5}]},{"primitives":[{"mode":4,"attributes":{"POSITION":61,"NORMAL":62,"TEXCOORD_0":63},"indices":64,"material":5}]},{"primitives":[{"mode":4,"attributes":{"POSITION":65,"NORMAL":66,"TEXCOORD_0":67},"indices":68,"material":5}]},{"primitives":[{"mode":4,"attributes":{"POSITION":69,"NORMAL":70,"TEXCOORD_0":71},"indices":72,"material":5}]},{"primitives":[{"mode":4,"attributes":{"POSITION":73,"NORMAL":74,"TEXCOORD_0":75},"indices":76,"material":5}]},{"primitives":[{"mode":4,"attributes":{"POSITION":77,"NORMAL":78,"TEXCOORD_0":79},"indices":80,"material":5}]},{"primitives":[{"mode":4,"attributes":{"POSITION":81,"NORMAL":82,"TEXCOORD_0":83},"indices":84,"material":5}]}]}