{"asset":{"version":"2.0","generator":"Blockbench 4.9.3 glTF exporter"},"scenes":[{"nodes":[8],"name":"blockbench_export"}],"scene":0,"nodes":[{"name":"plane","mesh":0},{"name":"house","mesh":1},{"name":"pyramid","mesh":2},{"name":"haystack1","mesh":3},{"name":"haystack2","mesh":4},{"name":"haystack3","mesh":5},{"name":"haystack3","mesh":6},{"name":"haystack","children":[3,4,5,6]},{"children":[0,1,2,7]}],"bufferViews":[{"buffer":0,"byteOffset":0,"byteLength":48,"target":34962,"byteStride":12},{"buffer":0,"byteOffset":48,"byteLength":48,"target":34962,"byteStride":12},{"buffer":0,"byteOffset":96,"byteLength":32,"target":34962,"byteStride":8},{"buffer":0,"byteOffset":128,"byteLength":12,"target":34963},{"buffer":0,"byteOffset":140,"byteLength":288,"target":34962,"byteStride":12},{"buffer":0,"byteOffset":428,"byteLength":288,"target":34962,"byteStride":12},{"buffer":0,"byteOffset":716,"byteLength":192,"target":34962,"byteStride":8},{"buffer":0,"byteOffset":908,"byteLength":72,"target":34963},{"buffer":0,"byteOffset":980,"byteLength":192,"target":34962,"byteStride":12},{"buffer":0,"byteOffset":1172,"byteLength":192,"target":34962,"byteStride":12},{"buffer":0,"byteOffset":1364,"byteLength":128,"target":34962,"byteStride":8},{"buffer":0,"byteOffset":1492,"byteLength":36,"target":34963},{"buffer":0,"byteOffset":1528,"byteLength":288,"target":34962,"byteStride":12},{"buffer":0,"byteOffset":1816,"byteLength":288,"target":34962,"byteStride":12},{"buffer":0,"byteOffset":2104,"byteLength":192,"target":34962,"byteStride":8},{"buffer":0,"byteOffset":2296,"byteLength":72,"target":34963},{"buffer":0,"byteOffset":2368,"byteLength":288,"target":34962,"byteStride":12},{"buffer":0,"byteOffset":2656,"byteLength":288,"target":34962,"byteStride":12},{"buffer":0,"byteOffset":2944,"byteLength":192,"target":34962,"byteStride":8},{"buffer":0,"byteOffset":3136,"byteLength":12,"target":34963},{"buffer":0,"byteOffset":3148,"byteLength":12,"target":34963},{"buffer":0,"byteOffset":3160,"byteLength":12,"target":34963},{"buffer":0,"byteOffset":3172,"byteLength":12,"target":34963},{"buffer":0,"byteOffset":3184,"byteLength":12,"target":34963},{"buffer":0,"byteOffset":3196,"byteLength":12,"target":34963},{"buffer":0,"byteOffset":3208,"byteLength":288,"target":34962,"byteStride":12},{"buffer":0,"byteOffset":3496,"byteLength":288,"target":34962,"byteStride":12},{"buffer":0,"byteOffset":3784,"byteLength":192,"target":34962,"byteStride":8},{"buffer":0,"byteOffset":3976,"byteLength":12,"target":34963},{"buffer":0,"byteOffset":3988,"byteLength":12,"target":34963},{"buffer":0,"byteOffset":4000,"byteLength":12,"target":34963},{"buffer":0,"byteOffset":4012,"byteLength":12,"target":34963},{"buffer":0,"byteOffset":4024,"byteLength":12,"target":34963},{"buffer":0,"byteOffset":4036,"byteLength":12,"target":34963},{"buffer":0,"byteOffset":4048,"byteLength":288,"target":34962,"byteStride":12},{"buffer":0,"byteOffset":4336,"byteLength":288,"target":34962,"byteStride":12},{"buffer":0,"byteOffset":4624,"byteLength":192,"target":34962,"byteStride":8},{"buffer":0,"byteOffset":4816,"byteLength":72,"target":34963}],"buffers":[{"byteLength":4888,"uri":"data:application/octet-stream;base64,"}],"accessors":[{"bufferView":0,"componentType":5126,"count":4,"max":[0.5,0,0.5],"min":[-0.5,0,-0.5],"type":"VEC3"},{"bufferView":1,"componentType":5126,"count":4,"max":[0,1,0],"min":[0,1,0],"type":"VEC3"},{"bufferView":2,"componentType":5126,"count":4,"max":[1,1],"min":[0,0],"type":"VEC2"},{"bufferView":3,"componentType":5123,"count":6,"max":[3],"min":[0],"type":"SCALAR"},{"bufferView":4,"componentType":5126,"count":24,"max":[-0.1875,0.125,-0.25],"min":[-0.4375,0,-0.5],"type":"VEC3"},{"bufferView":5,"componentType":5126,"count":24,"max":[1,1,1],"min":[-1,-1,-1],"type":"VEC3"},{"bufferView":6,"componentType":5126,"count":24,"max":[0.5,0.5],"min":[0,0],"type":"VEC2"},{"bufferView":7,"componentType":5123,"count":36,"max":[23],"min":[0],"type":"SCALAR"},{"bufferView":8,"componentType":5126,"count":16,"max":[-0.125,0.25,-0.25],"min":[-0.5,0.125,-0.5],"type":"VEC3"},{"bufferView":9,"componentType":5126,"count":16,"max":[0.5547001957893372,0.8320503234863281,0.7071067690849304],"min":[-0.5547001957893372,-1,-0.7071067690849304],"type":"VEC3"},{"bufferView":10,"componentType":5126,"count":16,"max":[0.8125,0.8201912641525269],"min":[0,0],"type":"VEC2"},{"bufferView":11,"componentType":5123,"count":18,"max":[15],"min":[0],"type":"SCALAR"},{"bufferView":12,"componentType":5126,"count":24,"max":[-0.1875,0.0625,0.3125],"min":[-0.3125,0,0.25],"type":"VEC3"},{"bufferView":13,"componentType":5126,"count":24,"max":[1,1,1],"min":[-1,-1,-1],"type":"VEC3"},{"bufferView":14,"componentType":5126,"count":24,"max":[0.125,0.0625],"min":[0,0],"type":"VEC2"},{"bufferView":15,"componentType":5123,"count":36,"max":[23],"min":[0],"type":"SCALAR"},{"bufferView":16,"componentType":5126,"count":24,"max":[-0.125,0.0625,0.25],"min":[-0.25,0,0.1875],"type":"VEC3"},{"bufferView":17,"componentType":5126,"count":24,"max":[1,1,1],"min":[-1,-1,-1],"type":"VEC3"},{"bufferView":18,"componentType":5126,"count":24,"max":[0.125,0.0625],"min":[0,0],"type":"VEC2"},{"bufferView":19,"componentType":5123,"count":6,"max":[3],"min":[0],"type":"SCALAR"},{"bufferView":20,"componentType":5123,"count":6,"max":[7],"min":[4],"type":"SCALAR"},{"bufferView":21,"componentType":5123,"count":6,"max":[11],"min":[8],"type":"SCALAR"},{"bufferView":22,"componentType":5123,"count":6,"max":[15],"min":[12],"type":"SCALAR"},{"bufferView":23,"componentType":5123,"count":6,"max":[19],"min":[16],"type":"SCALAR"},{"bufferView":24,"componentType":5123,"count":6,"max":[23],"min":[20],"type":"SCALAR"},{"bufferView":25,"componentType":5126,"count":24,"max":[-0.1875,0.0625,0.1875],"min":[-0.25,0,0.125],"type":"VEC3"},{"bufferView":26,"componentType":5126,"count":24,"max":[1,1,1],"min":[-1,-1,-1],"type":"VEC3"},{"bufferView":27,"componentType":5126,"count":24,"max":[0.0625,0.0625],"min":[0,0],"type":"VEC2"},{"bufferView":28,"componentType":5123,"count":6,"max":[3],"min":[0],"type":"SCALAR"},{"bufferView":29,"componentType":5123,"count":6,"max":[7],"min":[4],"type":"SCALAR"},{"bufferView":30,"componentType":5123,"count":6,"max":[11],"min":[8],"type":"SCALAR"},{"bufferView":31,"componentType":5123,"count":6,"max":[15],"min":[12],"type":"SCALAR"},{"bufferView":32,"componentType":5123,"count":6,"max":[19],"min":[16],"type":"SCALAR"},{"bufferView":33,"componentType":5123,"count":6,"max":[23],"min":[20],"type":"SCALAR"},{"bufferView":34,"componentType":5126,"count":24,"max":[-0.1875,0.125,0.25],"min":[-0.25,0.0625,0.1875],"type":"VEC3"},{"bufferView":35,"componentType":5126,"count":24,"max":[1,1,1],"min":[-1,-1,-1],"type":"VEC3"},{"bufferView":36,"componentType":5126,"count":24,"max":[0.1875,0.1875],"min":[0,0],"type":"VEC2"},{"bufferView":37,"componentType":5123,"count":36,"max":[23],"min":[0],"type":"SCALAR"}],"materials":[{"pbrMetallicRoughness":{"metallicFactor":0,"roughnessFactor":1,"baseColorTexture":{"index":0}},"alphaMode":"MASK","alphaCutoff":0.05,"doubleSided":true},{"pbrMetallicRoughness":{"metallicFactor":0,"roughnessFactor":1,"baseColorTexture":{"index":1}},"alphaMode":"MASK","alphaCutoff":0.05,"doubleSided":true},{"pbrMetallicRoughness":{"metallicFactor":0,"roughnessFactor":1,"baseColorTexture":{"index":2}},"alphaMode":"MASK","alphaCutoff":0.05,"doubleSided":true},{"pbrMetallicRoughness":{"metallicFactor":0,"roughnessFactor":1},"alphaMode":"MASK","alphaCutoff":0.05,"doubleSided":true},{"pbrMetallicRoughness":{"metallicFactor":0,"roughnessFactor":1,"baseColorTexture":{"index":3}},"alphaMode":"MASK","alphaCutoff":0.05,"doubleSided":true}],"textures":[{"sampler":0,"source":0},{"sampler":1,"source":1},{"sampler":2,"source":2},{"sampler":3,"source":3}],"samplers":[{"magFilter":9728,"minFilter":9728,"wrapS":33071,"wrapT":33071},{"magFilter":9728,"minFilter":9728,"wrapS":33071,"wrapT":33071},{"magFilter":9728,"minFilter":9728,"wrapS":33071,"wrapT":33071},{"magFilter":9728,"minFilter":9728,"wrapS":33071,"wrapT":33071}],"images":[{"mimeType":"image/png","uri":"data:image/png;base64,"},{"mimeType":"image/png","uri":"data:image/png;base64,"},{"mimeType":"image/png","uri":"data:image/png;base64,"},{"mimeType":"image/png","uri":"data:image/png;base64,"}],"meshes":[{"primitives":[{"mode":4,"attributes":{"POSITION":0,"NORMAL":1,"TEXCOORD_0":2},"indices":3,"material":0}]},{"primitives":[{"mode":4,"attributes":{"POSITION":4,"NORMAL":5,"TEXCOORD_0":6},"indices":7,"material":1}]},{"primitives":[{"mode":4,"attributes":{"POSITION":8,"NORMAL":9,"TEXCOORD_0":10},"indices":11,"material":2}]},{"primitives":[{"mode":4,"attributes":{"POSITION":12,"NORMAL":13,"TEXCOORD_0":14},"indices":15,"material":3}]},{"primitives":[{"mode":4,"attributes":{"POSITION":16,"NORMAL":17,"TEXCOORD_0":18},"indices":19,"material":4},{"mode":4,"attributes":{"POSITION":16,"NORMAL":17,"TEXCOORD_0":18},"indices":20,"material":3},{"mode":4,"attributes":{"POSITION":16,"NORMAL":17,"TEXCOORD_0":18},"indices":21,"material":4},{"mode":4,"attributes":{"POSITION":16,"NORMAL":17,"TEXCOORD_0":18},"indices":22,"material":3},{"mode":4,"attributes":{"POSITION":16,"NORMAL":17,"TEXCOORD_0":18},"indices":23,"material":3},{"mode":4,"attributes":{"POSITION":16,"NORMAL":17,"TEXCOORD_0":18},"indices":24,"material":3}]},{"primitives":[{"mode":4,"attributes":{"POSITION":25,"NORMAL":26,"TEXCOORD_0":27},"indices":28,"material":3},{"mode":4,"attributes":{"POSITION":25,"NORMAL":26,"TEXCOORD_0":27},"indices":29,"material":3},{"mode":4,"attributes":{"POSITION":25,"NORMAL":26,"TEXCOORD_0":27},"indices":30,"material":4},{"mode":4,"attributes":{"POSITION":25,"NORMAL":26,"TEXCOORD_0":27},"indices":31,"material":3},{"mode":4,"attributes":{"POSITION":25,"NORMAL":26,"TEXCOORD_0":27},"indices":32,"material":3},{"mode":4,"attributes":{"POSITION":25,"NORMAL":26,"TEXCOORD_0":27},"indices":33,"material":3}]},{"primitives":[{"mode":4,"attributes":{"POSITION":34,"NORMAL":35,"TEXCOORD_0":36},"indices":37,"material":4}]}]}